<svg width="1200" height="800" xmlns="http://www.w3.org/2000/svg">
  <defs>
    <linearGradient id="achieveBg" x1="0%" y1="0%" x2="100%" y2="100%">
      <stop offset="0%" style="stop-color:#1e3a8a;stop-opacity:1" />
      <stop offset="100%" style="stop-color:#3730a3;stop-opacity:1" />
    </linearGradient>
  </defs>
  
  <!-- Background -->
  <rect width="1200" height="800" fill="url(#achieveBg)"/>
  
  <!-- Trophy -->
  <ellipse cx="600" cy="550" rx="80" ry="20" fill="#fbbf24"/>
  <rect x="570" y="500" width="60" height="50" fill="#f59e0b" rx="5"/>
  <path d="M 550 500 L 550 450 L 650 450 L 650 500" fill="#fbbf24"/>
  <ellipse cx="600" cy="450" rx="50" ry="15" fill="#fcd34d"/>
  
  <!-- Trophy Handles -->
  <path d="M 550 480 Q 520 480 520 450 Q 520 420 550 420" stroke="#f59e0b" stroke-width="8" fill="none"/>
  <path d="M 650 480 Q 680 480 680 450 Q 680 420 650 420" stroke="#f59e0b" stroke-width="8" fill="none"/>
  
  <!-- Stars -->
  <polygon points="300,200 320,250 370,250 330,280 350,330 300,300 250,330 270,280 230,250 280,250" fill="#fbbf24"/>
  <polygon points="900,200 920,250 970,250 930,280 950,330 900,300 850,330 870,280 830,250 880,250" fill="#fbbf24"/>
  
  <!-- Ribbon -->
  <rect x="500" y="350" width="200" height="60" fill="#dc2626" rx="5"/>
  <text x="600" y="390" font-family="Arial, sans-serif" font-size="28" font-weight="bold" fill="#ffffff" text-anchor="middle">TOP 100</text>
  
  <!-- Text -->
  <text x="600" y="680" font-family="Arial, sans-serif" font-size="42" font-weight="bold" fill="#fbbf24" text-anchor="middle">Achievement</text>
  <text x="600" y="730" font-family="Arial, sans-serif" font-size="28" fill="#e0e7ff" text-anchor="middle">NIRF Ranking Excellence</text>
</svg>
